<?xml version="1.0" encoding="utf-8"?>
<!-- Generator: Adobe Illustrator 26.5.0, SVG Export Plug-In . SVG Version: 6.00 Build 0)  -->
<svg version="1.1" id="Layer_1" xmlns="http://www.w3.org/2000/svg" xmlns:xlink="http://www.w3.org/1999/xlink" x="0px" y="0px"
	 width="1632px" height="190px" viewBox="0 0 1632 190" style="enable-background:new 0 0 1632 190;" xml:space="preserve">
<style type="text/css">
	.st0{fill:#404041;}
	.st1{fill:#EE6331;}
	.st2{fill:#447099;}
</style>
<g id="full-rgb">
	<path id="fullLogo" class="st0" d="M228.2,50.8h27.2v5.1c5.1-4.7,14.3-7.2,21.8-7.2c29.7,0,48.1,20.5,48.1,49.4
		c0,29.7-19.2,51.9-48.9,51.9c-9.4,0-18-1.5-21-4.9v41h-27.3V50.8H228.2z M255.4,85.2v31.2c3,4.5,9.6,8.3,17.3,8.3
		c15.2,0,24.4-9.6,24.4-24.4c0-17.3-8.6-26.1-22.9-26.1C266.3,73.9,259,78.2,255.4,85.2z"/>
	<path id="fullLogo-2" class="st0" d="M387.3,48.7c31.2,0,53.2,21.2,53.2,50.7c0,29.3-22,50.5-53.2,50.5
		c-30.3,0-52.8-21.2-52.8-50.6C334.5,70,356.1,48.7,387.3,48.7z M387.3,124.7c14.8,0,25-9.4,25-25.2c0-16.2-11.3-25.4-25-25.4
		s-24.6,9.2-24.6,25.4C362.7,113.8,372.6,124.7,387.3,124.7z"/>
	<path id="fullLogo-3" class="st0" d="M450.8,79c0-18.8,15.6-30.3,42.1-30.3c18.6,0,34.4,8.7,40.6,17.7l-18.6,17.8
		c-6.4-6.6-15.2-10.2-27.4-10.2c-5.1,0-8.5,1.1-8.5,4.7c0,8.5,55.4,5.8,55.4,40.4c0,21.4-19.2,30.8-41.3,30.8
		c-23.9,0-39.8-10.9-46.8-23.7l21.6-14.7c5.3,6.8,16.2,13,28.2,13c6.6,0,10.1-1.7,10.1-5.3C506.2,109.8,450.8,112.3,450.8,79z"/>
	<path id="fullLogo-4" class="st0" d="M562.5,11.4c8.8,0,15.2,5.8,15.2,13.5c0,8.1-6.4,13.9-15.2,13.9c-9.6,0-15.4-5.8-15.4-13.9
		C547.1,17.2,553.5,11.4,562.5,11.4z M548.8,50.8H576v97.7h-27.2V50.8z"/>
	<path id="fullLogo-5" class="st0" d="M586.5,50.8H605V28.1h27.2v22.7h29.9v25.4h-29.9V108c0,11.8,2.6,16.3,10,16.3
		c6.4,0,11.5-2.3,16.7-6.4l11.3,19.3c-6.8,7.1-17.3,12.4-30.6,12.4c-20.5,0-34.6-11.1-34.6-33.6V76.2h-18.6L586.5,50.8z"/>
	<path id="fullLogo-6" class="st0" d="M675.7,50.9h11.7v2.8H683v10.7h-3V53.7h-4.3V50.9z"/>
	<path id="fullLogo-7" class="st0" d="M688.9,50.9h2.8l4.3,6.5l4.1-6.5h2.7v13.5h-3v-8.1l-3.5,5.4h-0.8l-3.6-5.4v8.2h-3V50.9z"/>
	<polygon id="fullLogo-8" class="st1" points="38,80.6 46.2,77 82.9,60.8 90.9,57.2 179.7,18 179.7,65.3 143.8,80.6 135.7,77 
		173.2,61 173.2,27.9 98.9,60.8 90.9,64.3 54.3,80.5 46.2,84.1 20.3,95.5 20.3,104 45.8,115.3 53.9,118.9 91.5,135.4 99.5,139 
		173.2,171.6 173.2,138.1 136.1,122.3 144.2,118.7 179.7,133.9 179.7,181.5 91.5,142.6 83.6,139 45.8,122.3 37.6,118.7 13.8,108.2 
		13.8,91.3 	"/>
	<polygon class="st1" points="99.2,99.6 135.6,84.1 127.5,80.5 82.6,99.6 127.9,118.9 136,115.3 	"/>
	<polygon id="fullLogo-9" class="st2" points="45.8,115.3 53.9,118.9 90.9,103.1 82.7,99.6 	"/>
	<polygon id="fullLogo-10" class="st2" points="54.3,80.5 46.2,84.1 82.7,99.6 90.9,96.1 	"/>
	<polygon id="fullLogo-11" class="st2" points="143.8,80.6 135.7,77 98.9,60.8 90.9,57.2 2.1,18 2.1,65.3 38,80.6 46.2,77 8.6,61 
		8.6,27.9 82.9,60.8 90.9,64.3 127.5,80.5 135.6,84.1 161.6,95.5 161.6,104 136.1,115.3 127.9,118.9 90.4,135.4 82.4,139 8.6,171.6 
		8.6,138.1 45.8,122.3 37.6,118.7 2.1,133.9 2.1,181.5 90.3,142.6 98.3,139 136.1,122.3 144.2,118.7 168,108.2 168,91.3 	"/>
</g>
<g>
	<g>
		<path class="st0" d="M883.7,19l-34.4,128.5h-15L808.8,61c-0.8-2.5-1.5-4.9-2.2-7.4c-0.7-2.5-1.3-4.9-1.9-7.1
			c-0.6-2.3-1.1-4.2-1.5-6c-0.4-1.7-0.7-3-0.8-3.9c-0.1,0.9-0.3,2.2-0.7,3.9c-0.3,1.7-0.7,3.7-1.2,5.9c-0.5,2.2-1.1,4.6-1.8,7.1
			c-0.7,2.5-1.4,5.1-2.2,7.6l-24.8,86.4h-15L722.7,19h15.6L759,99.6c0.7,2.7,1.4,5.3,2,8c0.6,2.6,1.2,5.1,1.7,7.6
			c0.5,2.5,1,4.9,1.4,7.2c0.4,2.3,0.8,4.6,1.1,6.9c0.3-2.3,0.7-4.7,1.1-7.2c0.5-2.5,1-5,1.5-7.6c0.6-2.6,1.2-5.2,1.8-7.8
			c0.7-2.6,1.4-5.3,2.2-7.9L794.9,19h15.4l24.1,80.3c0.8,2.8,1.6,5.5,2.3,8.2c0.7,2.7,1.3,5.3,1.9,7.9c0.6,2.5,1.1,5,1.5,7.3
			c0.4,2.3,0.8,4.5,1.2,6.5c0.4-2.9,0.9-5.9,1.5-9.1c0.6-3.2,1.3-6.5,2.1-9.9c0.8-3.5,1.7-7,2.6-10.7L868,19H883.7z"/>
		<path class="st0" d="M980.2,99.2c0,7.9-1,15-3.1,21.2c-2.1,6.2-5,11.5-8.9,15.7c-3.9,4.3-8.5,7.5-14,9.8
			c-5.5,2.3-11.7,3.4-18.6,3.4c-6.4,0-12.3-1.1-17.7-3.4s-10-5.5-13.9-9.8c-3.9-4.3-6.9-9.5-9.1-15.7c-2.1-6.2-3.2-13.3-3.2-21.2
			c0-10.5,1.8-19.5,5.4-26.9c3.6-7.4,8.7-13.1,15.3-17c6.6-3.9,14.6-5.8,23.8-5.8c8.8,0,16.5,2,23.1,5.9c6.6,3.9,11.7,9.6,15.4,17
			C978.4,79.7,980.2,88.7,980.2,99.2z M906.9,99.2c0,7.7,1,14.4,3.1,20.1c2.1,5.7,5.2,10.1,9.5,13.2c4.3,3.1,9.8,4.7,16.5,4.7
			c6.7,0,12.2-1.6,16.5-4.7c4.3-3.1,7.5-7.5,9.5-13.2c2.1-5.7,3.1-12.4,3.1-20.1c0-7.7-1-14.3-3.1-19.9c-2.1-5.6-5.2-9.9-9.5-13
			c-4.3-3-9.8-4.6-16.6-4.6c-10,0-17.4,3.3-22,9.9C909.3,78.3,906.9,87.4,906.9,99.2z"/>
		<path class="st0" d="M1044.7,49.4c1.9,0,4,0.1,6.1,0.3c2.1,0.2,4,0.5,5.6,0.8l-1.8,13.5c-1.6-0.4-3.3-0.7-5.3-1
			c-1.9-0.2-3.8-0.4-5.4-0.4c-3.9,0-7.5,0.8-10.9,2.3c-3.4,1.6-6.4,3.8-9,6.7c-2.6,2.9-4.6,6.4-6.1,10.5c-1.5,4.1-2.2,8.6-2.2,13.6
			v51.7H1001V51.2h12.1l1.6,17.8h0.6c2-3.6,4.4-6.8,7.2-9.8c2.8-3,6.1-5.3,9.8-7.1C1036,50.3,1040.2,49.4,1044.7,49.4z"/>
		<path class="st0" d="M1084.5,10.7v71c0,2.3-0.1,5.2-0.3,8.6c-0.2,3.4-0.3,6.3-0.4,8.9h0.6c1.2-1.5,3-3.8,5.4-6.8s4.4-5.4,6-7.2
			l32-34.1h17.1l-38.8,41.1l41.6,55.2h-17.6l-34-45.6l-11.7,10.7v34.9H1070V10.7H1084.5z"/>
		<path class="st0" d="M1174.7,10.7v34.2c0,3.9-0.1,7.7-0.3,11.4c-0.2,3.7-0.4,6.6-0.5,8.6h0.8c2.6-4.3,6.4-8,11.4-11
			c5-3,11.3-4.5,19.1-4.5c12.1,0,21.7,4.2,28.9,12.5c7.2,8.3,10.8,20.8,10.8,37.2c0,10.8-1.6,20-4.9,27.4
			c-3.3,7.4-7.9,13.1-13.9,16.9c-6,3.8-13,5.7-21.2,5.7c-7.6,0-13.9-1.4-18.8-4.3c-4.9-2.8-8.7-6.3-11.3-10.4h-1.1l-3,12.9h-10.5
			V10.7H1174.7z M1202.8,61.7c-7,0-12.5,1.4-16.6,4.1c-4.1,2.7-7,6.8-8.8,12.3c-1.8,5.5-2.7,12.4-2.7,20.8v0.8
			c0,12.1,2,21.4,6.1,27.8s11.4,9.6,22.1,9.6c9,0,15.7-3.3,20.2-9.8c4.5-6.6,6.7-15.9,6.7-28.1c0-12.4-2.2-21.8-6.6-28
			C1218.7,64.9,1211.9,61.7,1202.8,61.7z"/>
		<path class="st0" d="M1302.8,49.4c8.2,0,15.2,1.8,21.1,5.4c5.9,3.6,10.3,8.7,13.4,15.2c3.1,6.5,4.7,14.2,4.7,22.9v9.1h-66.5
			c0.2,11.3,3,19.9,8.4,25.8c5.4,5.9,13.1,8.9,23,8.9c6.1,0,11.5-0.6,16.2-1.7c4.7-1.1,9.5-2.8,14.6-4.9V143
			c-4.9,2.2-9.7,3.8-14.5,4.7c-4.8,1-10.4,1.5-16.9,1.5c-9.3,0-17.3-1.9-24.2-5.7c-6.9-3.8-12.2-9.3-16-16.7
			c-3.8-7.3-5.7-16.3-5.7-26.9c0-10.4,1.7-19.3,5.2-26.9c3.5-7.6,8.4-13.4,14.8-17.5C1286.7,51.5,1294.2,49.4,1302.8,49.4z
			 M1302.6,61.4c-7.8,0-14,2.5-18.6,7.6c-4.6,5.1-7.4,12.2-8.3,21.4h51c-0.1-5.7-1-10.8-2.7-15.2c-1.7-4.4-4.4-7.8-7.9-10.2
			C1312.7,62.6,1308.2,61.4,1302.6,61.4z"/>
		<path class="st0" d="M1407.9,49.4c11.4,0,20.1,2.8,25.9,8.4c5.9,5.6,8.8,14.6,8.8,26.9v62.8h-14.4V85.7c0-8-1.8-14-5.5-18
			c-3.7-4-9.3-6-16.8-6c-10.7,0-18.2,3-22.5,9.1c-4.3,6-6.5,14.8-6.5,26.3v50.4h-14.6V51.2h11.8l2.2,13.9h0.8
			c2.1-3.4,4.7-6.3,7.8-8.6c3.2-2.3,6.7-4.1,10.6-5.3C1399.5,50,1403.6,49.4,1407.9,49.4z"/>
		<path class="st0" d="M1506.8,149.3c-8.7,0-16.3-1.8-22.9-5.4c-6.6-3.6-11.8-9-15.5-16.3c-3.7-7.3-5.5-16.6-5.5-27.7
			c0-11.7,1.9-21.2,5.8-28.6c3.9-7.4,9.3-12.9,16.1-16.5c6.9-3.6,14.6-5.4,23.4-5.4c4.8,0,9.4,0.5,13.9,1.5s8.2,2.2,11,3.6
			l-4.4,12.2c-2.9-1.2-6.3-2.2-10.2-3.2c-3.8-0.9-7.4-1.4-10.8-1.4c-6.7,0-12.2,1.4-16.7,4.3c-4.4,2.9-7.7,7.1-9.9,12.7
			c-2.2,5.6-3.3,12.4-3.3,20.6c0,7.8,1.1,14.4,3.2,20c2.1,5.5,5.3,9.7,9.6,12.6c4.2,2.9,9.6,4.4,16,4.4c5.1,0,9.7-0.5,13.8-1.6
			c4.1-1.1,7.8-2.4,11.2-3.8v13c-3.2,1.6-6.8,2.9-10.8,3.8S1512.2,149.3,1506.8,149.3z"/>
		<path class="st0" d="M1564.5,10.7v40.9c0,2.3-0.1,4.7-0.2,7.1c-0.1,2.4-0.3,4.6-0.6,6.5h1c2-3.4,4.5-6.3,7.6-8.6
			c3.1-2.3,6.6-4.1,10.5-5.3c3.9-1.2,8.1-1.8,12.5-1.8c7.7,0,14.2,1.2,19.4,3.7s9.1,6.3,11.7,11.4c2.6,5.2,3.9,11.8,3.9,20v62.8
			h-14.4V85.7c0-8-1.8-14-5.5-18c-3.7-4-9.3-6-16.8-6c-7.1,0-12.8,1.4-17.1,4.1c-4.2,2.7-7.3,6.7-9.1,12s-2.8,11.7-2.8,19.3v50.4
			h-14.6V10.7H1564.5z"/>
	</g>
</g>
</svg>
